# xmcd CD database file
#
# Track frame offsets:
#	182
#	4815
#	34432
#	63440
#	93952
#	125430
#	190007
#
# Disc length: 2976 seconds
#
# Revision: 0
# Processed by: cddbd v1.5.2PL0 Copyright (c) Steve Scherf et al.
# Submitted via: CDex 1.51
#
DISCID=560b9e07
DTITLE=Sarrah Morrow - Greenlight
DYEAR=2000
DGENRE=Jazz
TTITLE0=Intro
TTITLE1=Greenlight
TTITLE2=Tisha's Dance
TTITLE3=Elwin Goes Waltzing
TTITLE4=You Don't Know What Love Is
TTITLE5=Waduyathink
TTITLE6=One For The Road
EXTD=YEAR: 2000
EXTT0=
EXTT1=
EXTT2=
EXTT3=
EXTT4=
EXTT5=
EXTT6=
PLAYORDER=
